<svg preserveAspectRatio="none" width="100%" height="100%" overflow="visible" style="display: block;" viewBox="0 0 393 405" fill="none" xmlns="http://www.w3.org/2000/svg">
<g id="Frame 6">
<line id="Line 1" x1="0.5" y1="61.5" x2="0.5" y2="343.5" stroke="var(--stroke-0, white)" stroke-opacity="0.3"/>
<line id="Line 31" x1="8.5" y1="61.5" x2="8.5" y2="343.5" stroke="var(--stroke-0, white)" stroke-opacity="0.3"/>
<line id="Line 32" x1="16.5" y1="61.5" x2="16.5" y2="343.5" stroke="var(--stroke-0, white)" stroke-opacity="0.3"/>
<line id="Line 33" x1="24.5" y1="61.5" x2="24.5" y2="343.5" stroke="var(--stroke-0, white)" stroke-opacity="0.3"/>
<line id="Line 34" x1="32.5" y1="61.5" x2="32.5" y2="343.5" stroke="var(--stroke-0, white)" stroke-opacity="0.3"/>
<line id="Line 35" x1="40.5" y1="61.5" x2="40.5" y2="343.5" stroke="var(--stroke-0, white)" stroke-opacity="0.3"/>
<line id="Line 36" x1="48.5" y1="61.5" x2="48.5" y2="343.5" stroke="var(--stroke-0, white)" stroke-opacity="0.3"/>
<line id="Line 37" x1="56.5" y1="61.5" x2="56.5" y2="343.5" stroke="var(--stroke-0, white)" stroke-opacity="0.3"/>
<line id="Line 25" x1="64.5" y1="61.5" x2="64.5" y2="343.5" stroke="var(--stroke-0, white)" stroke-opacity="0.3"/>
<line id="Line 26" x1="72.5" y1="61.5" x2="72.5" y2="343.5" stroke="var(--stroke-0, white)" stroke-opacity="0.3"/>
<line id="Line 27" x1="80.5" y1="61.5" x2="80.5" y2="343.5" stroke="var(--stroke-0, white)" stroke-opacity="0.3"/>
<line id="Line 28" x1="88.5" y1="61.5" x2="88.5" y2="343.5" stroke="var(--stroke-0, white)" stroke-opacity="0.3"/>
<line id="Line 29" x1="96.5" y1="61.5" x2="96.5" y2="343.5" stroke="var(--stroke-0, white)" stroke-opacity="0.3"/>
<line id="Line 30" x1="104.5" y1="61.5" x2="104.5" y2="343.5" stroke="var(--stroke-0, white)" stroke-opacity="0.3"/>
<line id="Line 4" x1="112.5" y1="61.5" x2="112.5" y2="343.5" stroke="var(--stroke-0, white)" stroke-opacity="0.3"/>
<line id="Line 9" x1="120.5" y1="45.5" x2="120.5" y2="359.5" stroke="var(--stroke-0, white)" stroke-opacity="0.3"/>
<line id="Line 10" x1="128.5" y1="27.5" x2="128.5" y2="377.5" stroke="var(--stroke-0, white)" stroke-opacity="0.3"/>
<line id="Line 11" x1="136.5" y1="17" x2="136.5" y2="388" stroke="var(--stroke-0, white)" stroke-opacity="0.3"/>
<line id="Line 12" x1="144.5" y1="9" x2="144.5" y2="396" stroke="var(--stroke-0, white)" stroke-opacity="0.3"/>
<line id="Line 42" x1="152.5" y1="9" x2="152.5" y2="396" stroke="var(--stroke-0, white)" stroke-opacity="0.3"/>
<line id="Line 43" x1="160.5" y1="9" x2="160.5" y2="396" stroke="var(--stroke-0, white)" stroke-opacity="0.3"/>
<line id="Line 44" x1="168.5" y1="9" x2="168.5" y2="396" stroke="var(--stroke-0, white)" stroke-opacity="0.3"/>
<line id="Line 45" x1="176.5" y1="9" x2="176.5" y2="396" stroke="var(--stroke-0, white)" stroke-opacity="0.3"/>
<line id="Line 46" x1="184.5" y1="9" x2="184.5" y2="396" stroke="var(--stroke-0, white)" stroke-opacity="0.3"/>
<line id="Line 47" x1="192.5" y1="9" x2="192.5" y2="396" stroke="var(--stroke-0, white)" stroke-opacity="0.3"/>
<line id="Line 48" x1="200.5" y1="9" x2="200.5" y2="396" stroke="var(--stroke-0, white)" stroke-opacity="0.3"/>
<line id="Line 49" x1="208.5" y1="9" x2="208.5" y2="396" stroke="var(--stroke-0, white)" stroke-opacity="0.3"/>
<line id="Line 50" x1="216.5" y1="9" x2="216.5" y2="396" stroke="var(--stroke-0, white)" stroke-opacity="0.3"/>
<line id="Line 51" x1="224.5" y1="9" x2="224.5" y2="396" stroke="var(--stroke-0, white)" stroke-opacity="0.3"/>
<line id="Line 52" x1="232.5" y1="9" x2="232.5" y2="396" stroke="var(--stroke-0, white)" stroke-opacity="0.3"/>
<line id="Line 53" x1="240.5" y1="9" x2="240.5" y2="396" stroke="var(--stroke-0, white)" stroke-opacity="0.3"/>
<line id="Line 54" x1="248.5" y1="9" x2="248.5" y2="396" stroke="var(--stroke-0, white)" stroke-opacity="0.3"/>
<line id="Line 55" x1="256.5" y1="9" x2="256.5" y2="396" stroke="var(--stroke-0, white)" stroke-opacity="0.3"/>
<line id="Line 56" x1="264.5" y1="9" x2="264.5" y2="396" stroke="var(--stroke-0, white)" stroke-opacity="0.3"/>
<line id="Line 5" x1="272.5" y1="2.18557e-08" x2="272.5" y2="405" stroke="var(--stroke-0, white)" stroke-opacity="0.3"/>
<line id="Line 19" x1="280.5" y1="2.18557e-08" x2="280.5" y2="405" stroke="var(--stroke-0, white)" stroke-opacity="0.3"/>
<line id="Line 18" x1="288.5" y1="9" x2="288.5" y2="396" stroke="var(--stroke-0, white)" stroke-opacity="0.3"/>
<line id="Line 17" x1="296.5" y1="17" x2="296.5" y2="388" stroke="var(--stroke-0, white)" stroke-opacity="0.3"/>
<line id="Line 16" x1="304.5" y1="27.5" x2="304.5" y2="377.5" stroke="var(--stroke-0, white)" stroke-opacity="0.3"/>
<line id="Line 15" x1="312.5" y1="45.5" x2="312.5" y2="359.5" stroke="var(--stroke-0, white)" stroke-opacity="0.3"/>
<line id="Line 14" x1="320.5" y1="61.5" x2="320.5" y2="343.5" stroke="var(--stroke-0, white)" stroke-opacity="0.3"/>
<line id="Line 20" x1="328.5" y1="61.5" x2="328.5" y2="343.5" stroke="var(--stroke-0, white)" stroke-opacity="0.3"/>
<line id="Line 21" x1="336.5" y1="61.5" x2="336.5" y2="343.5" stroke="var(--stroke-0, white)" stroke-opacity="0.3"/>
<line id="Line 22" x1="344.5" y1="61.5" x2="344.5" y2="343.5" stroke="var(--stroke-0, white)" stroke-opacity="0.3"/>
<line id="Line 23" x1="352.5" y1="61.5" x2="352.5" y2="343.5" stroke="var(--stroke-0, white)" stroke-opacity="0.3"/>
<line id="Line 24" x1="360.5" y1="61.5" x2="360.5" y2="343.5" stroke="var(--stroke-0, white)" stroke-opacity="0.3"/>
<line id="Line 38" x1="368.5" y1="61.5" x2="368.5" y2="343.5" stroke="var(--stroke-0, white)" stroke-opacity="0.3"/>
<line id="Line 39" x1="376.5" y1="61.5" x2="376.5" y2="343.5" stroke="var(--stroke-0, white)" stroke-opacity="0.3"/>
<line id="Line 40" x1="384.5" y1="61.5" x2="384.5" y2="343.5" stroke="var(--stroke-0, white)" stroke-opacity="0.3"/>
<line id="Line 41" x1="392.5" y1="61.5" x2="392.5" y2="343.5" stroke="var(--stroke-0, white)" stroke-opacity="0.3"/>
</g>
</svg>
