<svg preserveAspectRatio="none" width="100%" height="100%" overflow="visible" style="display: block;" viewBox="0 0 10.999 11.585" fill="none" xmlns="http://www.w3.org/2000/svg">
<path id="Subtract" d="M7.54395 4.81836H9.99316V9.22266H10.999V11.377H8.76562V9.66699H7.98242C7.59566 10.2612 7.06852 10.7302 6.40137 11.0732C5.72935 11.4163 4.95511 11.585 4.0752 11.585C2.80872 11.5849 1.81301 11.2706 1.08789 10.6475C0.362769 10.0194 0 9.20292 0 8.18359C7.15112e-05 7.16434 0.357828 6.28954 1.07812 5.7002C1.79843 5.11096 2.83311 4.81645 4.18652 4.81641H7.54395V4.81836ZM4.31738 6.34277C2.75592 6.34277 1.9728 6.92769 1.97266 8.0918C1.97266 8.64731 2.18496 9.09239 2.60547 9.4209C3.02609 9.74942 3.6119 9.91309 4.35645 9.91309C5.02832 9.91303 5.64236 9.77825 6.19824 9.50293C6.75415 9.23241 7.19851 8.8601 7.51758 8.38672C7.84149 7.91811 8.00097 7.40127 8.00098 6.8457V6.34277H4.31738ZM5.19238 0C6.74432 0 7.92913 0.36717 8.75586 1.09668C9.32651 1.6003 9.69902 2.2582 9.875 3.07031H7.77539C7.39312 2.1767 6.52151 1.72949 5.15332 1.72949C3.60166 1.72961 2.66862 2.31431 2.34473 3.47852H0.242188C0.425887 2.37712 0.957114 1.5218 1.83203 0.913086C2.70709 0.304367 3.8242 1.11788e-05 5.19238 0Z" fill="var(--fill-0, #34CFED)"/>
</svg>
