<svg preserveAspectRatio="none" width="100%" height="100%" overflow="visible" style="display: block;" viewBox="0 0 16 16" fill="none" xmlns="http://www.w3.org/2000/svg">
<g id="keyboard_arrow_down">
<mask id="mask0_2389_1086" style="mask-type:alpha" maskUnits="userSpaceOnUse" x="0" y="0" width="16" height="16">
<rect id="Bounding box" width="16" height="16" fill="var(--fill-0, #D9D9D9)"/>
</mask>
<g mask="url(#mask0_2389_1086)">
<path id="keyboard_arrow_down_2" d="M7.99997 9.98332C7.91108 9.98332 7.82775 9.96943 7.74997 9.94165C7.67219 9.91387 7.59997 9.86665 7.5333 9.79998L4.46663 6.73332C4.34441 6.6111 4.2833 6.45554 4.2833 6.26665C4.2833 6.07776 4.34441 5.92221 4.46663 5.79998C4.58886 5.67776 4.74441 5.61665 4.9333 5.61665C5.12219 5.61665 5.27775 5.67776 5.39997 5.79998L7.99997 8.39998L10.6 5.79998C10.7222 5.67776 10.8777 5.61665 11.0666 5.61665C11.2555 5.61665 11.4111 5.67776 11.5333 5.79998C11.6555 5.92221 11.7166 6.07776 11.7166 6.26665C11.7166 6.45554 11.6555 6.6111 11.5333 6.73332L8.46663 9.79998C8.39997 9.86665 8.32775 9.91387 8.24997 9.94165C8.17219 9.96943 8.08886 9.98332 7.99997 9.98332Z" fill="var(--fill-0, white)"/>
</g>
</g>
</svg>
