<svg preserveAspectRatio="none" width="100%" height="100%" overflow="visible" style="display: block;" viewBox="0 0 43.5883 44.6" fill="none" xmlns="http://www.w3.org/2000/svg">
<g id="Frame 109">
<path id="Subtract" d="M25.3234 20.618H29.5519V28.2215H31.2882V31.9412H27.4318V28.9891H26.0802C25.4125 30.0149 24.5024 30.8237 23.3507 31.4158C22.1905 32.008 20.8551 32.2996 19.336 32.2996C17.1493 32.2996 15.4298 31.7574 14.1778 30.6814C12.9261 29.5973 12.3 28.1881 12.2999 26.4285C12.2999 24.6687 12.9177 23.1589 14.1612 22.1414C15.4049 21.1239 17.1914 20.615 19.5284 20.615H25.3234V20.618ZM19.753 23.2508C17.0575 23.2509 15.7053 24.2596 15.7052 26.2693C15.7052 27.2285 16.0728 27.9961 16.7989 28.5633C17.5251 29.1304 18.5352 29.4139 19.8204 29.4139C20.9805 29.4138 22.0404 29.1802 23.0001 28.7049C23.9599 28.2378 24.7276 27.5955 25.2784 26.7781C25.8376 25.9692 26.1134 25.077 26.1134 24.118V23.2508H19.753ZM21.2638 12.2996C23.943 12.2996 25.9879 12.9338 27.4152 14.1932C28.4005 15.0626 29.0429 16.1983 29.3468 17.6004H25.7286C25.0692 16.0563 23.5604 15.285 21.1974 15.285C18.5182 15.285 16.907 16.2945 16.3478 18.3045H12.7169C13.0341 16.4029 13.9524 14.9267 15.463 13.8758C16.9737 12.8249 18.9018 12.2996 21.2638 12.2996Z" fill="var(--fill-0, white)"/>
<g id="Subtract_2" filter="url(#filter0_f_2373_1001)">
<path d="M25.3234 20.6184H29.552V28.2219H31.2883V31.9416H27.4318V28.9895H26.0803C25.4126 30.0152 24.5025 30.8241 23.3508 31.4162C22.1906 32.0084 20.8552 32.3 19.3361 32.3C17.1494 32.3 15.4299 31.7578 14.1779 30.6818C12.9262 29.5977 12.3001 28.1885 12.3 26.4289C12.3 24.6691 12.9178 23.1593 14.1613 22.1418C15.405 21.1243 17.1915 20.6154 19.5285 20.6154H25.3234V20.6184ZM19.7531 23.2512C17.0576 23.2512 15.7054 24.26 15.7053 26.2697C15.7053 27.2289 16.0729 27.9965 16.799 28.5637C17.5252 29.1307 18.5352 29.4143 19.8205 29.4143C20.9805 29.4142 22.0404 29.1806 23.0002 28.7053C23.96 28.2382 24.7277 27.5959 25.2785 26.7785C25.8377 25.9695 26.1135 25.0774 26.1135 24.1184V23.2512H19.7531ZM21.2639 12.3C23.9431 12.3 25.988 12.9341 27.4152 14.1936C28.4005 15.063 29.043 16.1987 29.3469 17.6008H25.7287C25.0693 16.0567 23.5605 15.2854 21.1975 15.2854C18.5182 15.2854 16.9071 16.2948 16.3479 18.3049H12.717C13.0342 16.4033 13.9525 14.9271 15.4631 13.8762C16.9737 12.8253 18.9019 12.3 21.2639 12.3Z" fill="url(#paint0_linear_2373_1001)"/>
</g>
</g>
<defs>
<filter id="filter0_f_2373_1001" x="0" y="0" width="43.5883" height="44.6" filterUnits="userSpaceOnUse" color-interpolation-filters="sRGB">
<feFlood flood-opacity="0" result="BackgroundImageFix"/>
<feBlend mode="normal" in="SourceGraphic" in2="BackgroundImageFix" result="shape"/>
<feGaussianBlur stdDeviation="6.15" result="effect1_foregroundBlur_2373_1001"/>
</filter>
<linearGradient id="paint0_linear_2373_1001" x1="28.104" y1="12.3" x2="15.4845" y2="32.3" gradientUnits="userSpaceOnUse">
<stop stop-color="#34CFED"/>
<stop offset="1" stop-color="#1E7687"/>
</linearGradient>
</defs>
</svg>
