<svg preserveAspectRatio="none" width="100%" height="100%" overflow="visible" style="display: block;" viewBox="0 0 14.3756 13.5026" fill="none" xmlns="http://www.w3.org/2000/svg">
<path id="Vector" opacity="0.8" d="M8.18234 0.00261761C4.57692 -0.102382 1.62317 2.96512 1.62317 6.75262H0.355254C0.0365035 6.75262 -0.11933 7.15762 0.107337 7.39012L2.08359 9.49012C2.22525 9.64012 2.44484 9.64012 2.5865 9.49012L4.56275 7.39012C4.78234 7.15762 4.6265 6.75262 4.30775 6.75262H3.03984C3.03984 3.82762 5.29234 1.46512 8.069 1.50262C10.704 1.54012 12.9211 3.88762 12.9565 6.67762C12.9919 9.61012 10.7607 12.0026 7.99817 12.0026C6.85775 12.0026 5.80234 11.5901 4.9665 10.8926C4.68317 10.6601 4.2865 10.6826 4.0315 10.9526C3.734 11.2676 3.75525 11.8001 4.08817 12.0701C5.16484 12.9701 6.51775 13.5026 7.99817 13.5026C11.5753 13.5026 14.4723 10.3751 14.3732 6.55762C14.2811 3.04012 11.5044 0.100118 8.18234 0.00261761ZM7.82109 3.75262C7.53067 3.75262 7.28984 4.00762 7.28984 4.31512V7.07512C7.28984 7.33762 7.42442 7.58512 7.63692 7.72012L9.84692 9.10762C10.1019 9.26512 10.4278 9.17512 10.5765 8.91262C10.7253 8.64262 10.6403 8.29762 10.3923 8.14012L8.35234 6.85762V4.30762C8.35234 4.00762 8.1115 3.75262 7.82109 3.75262Z" fill="var(--fill-0, white)"/>
</svg>
